<svg id="Layer_1" data-name="Layer 1" xmlns="http://www.w3.org/2000/svg" viewBox="0 0 100 100"><defs><style>.cls-1{fill:#fff;}</style></defs><title>services</title><path class="cls-1" d="M31.68,25.14h0a32.46,32.46,0,0,1,36.64,0,2.08,2.08,0,0,0,2.35-3.42,36.63,36.63,0,0,0-41.34,0,2.08,2.08,0,1,0,2.35,3.42"/><path class="cls-1" d="M65.52,31.72h0a2.08,2.08,0,0,0-.41-2.91,25.09,25.09,0,0,0-30.21.08A2.08,2.08,0,1,0,37.4,32.2h0a20.94,20.94,0,0,1,25.21-.07,2.08,2.08,0,0,0,2.91-.41"/><path class="cls-1" d="M60.43,39.11h0a2.08,2.08,0,0,0-.32-2.92,16.31,16.31,0,0,0-10.19-3.58,16.12,16.12,0,0,0-10,3.45,2.08,2.08,0,0,0,2.56,3.27h0a12.12,12.12,0,0,1,15,.1h0a2.08,2.08,0,0,0,2.92-.32"/><path class="cls-1" d="M68.32,74.82a32.46,32.46,0,0,1-36.64,0,2.08,2.08,0,0,0-2.35,3.43,36.59,36.59,0,0,0,41.34,0h0a2.08,2.08,0,0,0-2.35-3.42h0Z"/><path class="cls-1" d="M37.4,67.79a2.08,2.08,0,1,0-2.51,3.31h0a25.09,25.09,0,0,0,30.21.08,2.08,2.08,0,1,0-2.49-3.32,20.94,20.94,0,0,1-25.21-.07h0Z"/><path class="cls-1" d="M49.93,67.38a16.31,16.31,0,0,0,10.19-3.59,2.08,2.08,0,1,0-2.6-3.23,12.12,12.12,0,0,1-15,.1h0a2.08,2.08,0,0,0-2.56,3.27,16.1,16.1,0,0,0,10,3.45h0Z"/><path class="cls-1" d="M14.24,51.34a1.24,1.24,0,0,0,.47,1,1.79,1.79,0,0,0,1.09.34,1.16,1.16,0,0,0,1.41-1c0-1.8-6.88-.36-6.88-4.71,0-2.87,3-3.71,5.31-3.71s5.31,0.56,5.57,3.54H17.18A1.17,1.17,0,0,0,16.75,46a1.41,1.41,0,0,0-.9-0.28c-0.77,0-1.26.24-1.26,0.79,0,1.56,7.09.51,7.09,4.71,0,2.34-1.93,3.92-6,3.92-2.57,0-5.4-.79-5.64-3.81h4.24Z"/><path class="cls-1" d="M22.43,43.3H26V45H22.43V43.3Zm0,11.59V45.77H26v9.12H22.43Z"/><path class="cls-1" d="M27,45.77H30.3v1.84h0a2.75,2.75,0,0,1,2.8-2.11,4.44,4.44,0,0,1,.47.05v3.62a5.56,5.56,0,0,0-.75-0.1c-1.48,0-2.23.7-2.23,2.66v3.15H27V45.77Z"/><path class="cls-1" d="M34.37,43.3H38V45H34.37V43.3Zm0,11.59V45.77H38v9.12H34.37Z"/><path class="cls-1" d="M48.8,54.89H45.45V53.55a3.48,3.48,0,0,1-3.29,1.6c-2,0-3.27-1.22-3.27-3.83V45.77H42.5V50.7c0,1.25.44,1.65,1.31,1.65,1,0,1.37-.78,1.37-2.19V45.77H48.8v9.12Z"/><path class="cls-1" d="M52.63,52.05a1,1,0,0,0,.38.84,1.46,1.46,0,0,0,.89.28,0.94,0.94,0,0,0,1.15-.82c0-1.46-5.59-.3-5.59-3.83,0-2.33,2.42-3,4.32-3S58.1,46,58.31,48.38H55a1,1,0,0,0-.35-0.66,1.15,1.15,0,0,0-.73-0.23c-0.63,0-1,.19-1,0.64,0,1.27,5.76.42,5.76,3.83,0,1.9-1.57,3.18-4.91,3.18-2.09,0-4.39-.64-4.58-3.1h3.45Z"/><path class="cls-1" d="M62.19,49L58.49,43.6h4.95l1.41,2.81,1.5-2.81h4.89L67.4,48.94l3.88,5.89h-5l-1.59-3.21-1.63,3.21H58.17Z"/><path class="cls-1" d="M71.56,43.6h4.09v1.67a3.87,3.87,0,0,1,3.18-2,3.54,3.54,0,0,1,3.52,2.06c1-1.35,1.81-2.05,3.43-2.05,2.83,0,4.22,1.84,4.22,4.9v6.64H85.54V49.11c0-1.65-.11-2.31-1.29-2.31S83,47.93,83,49.28v5.55H78.56V49.11c0-1.65-.1-2.28-1.28-2.31S76,47.93,76,49.28v5.55H71.56V43.6Z"/></svg>