<?xml version="1.0" encoding="utf-8"?>
<!-- Generator: Adobe Illustrator 16.0.0, SVG Export Plug-In . SVG Version: 6.00 Build 0)  -->
<!DOCTYPE svg PUBLIC "-//W3C//DTD SVG 1.1//EN" "http://www.w3.org/Graphics/SVG/1.1/DTD/svg11.dtd">
<svg version="1.1" id="grid" xmlns="http://www.w3.org/2000/svg" xmlns:xlink="http://www.w3.org/1999/xlink" x="0px" y="0px"
	 width="448.546px" height="388.632px" viewBox="78.909 111.394 448.546 388.632"
	 enable-background="new 78.909 111.394 448.546 388.632" xml:space="preserve">
<title>service_icons_individual_artboards</title>
<path fill="#00ADEE" d="M200.298,166.32L200.298,166.32c61.989-42.341,143.474-42.189,205.463,0.152
	c5.33,3.656,12.489,2.285,16.145-3.046c3.655-5.331,2.284-12.489-3.046-16.145l0,0c-69.757-47.824-161.751-47.824-231.66-0.152
	c-5.331,3.655-6.702,10.813-3.046,16.145C187.809,168.604,195.12,169.976,200.298,166.32L200.298,166.32"/>
<path fill="#00ADEE" d="M390.074,203.179L390.074,203.179c3.808-5.179,2.741-12.489-2.285-16.297
	c-50.262-37.62-119.257-37.467-169.366,0.457c-5.178,3.808-6.396,11.119-2.589,16.297c3.808,5.179,11.118,6.397,16.297,2.589
	c0.152-0.152,0.305-0.152,0.457-0.305l0,0c41.732-31.68,99.457-31.68,141.342-0.305
	C378.955,209.423,386.267,208.509,390.074,203.179C390.074,203.331,390.074,203.331,390.074,203.179"/>
<path fill="#00ADEE" d="M361.592,244.606L361.592,244.606c3.961-5.026,3.199-12.337-1.827-16.449
	c-16.145-12.946-36.401-20.104-57.115-20.104c-20.409,0-40.209,6.702-56.202,19.343c-5.026,3.96-5.94,11.271-1.98,16.297
	c3.96,5.026,11.271,5.94,16.297,1.98l0,0l0,0c24.826-19.343,59.704-19.191,84.378,0.609l0,0
	C350.169,250.546,357.632,249.632,361.592,244.606"/>
<path fill="#00ADEE" d="M405.762,444.891c-61.837,42.342-143.474,42.494-205.463,0.152c-5.483-3.503-12.642-1.827-16.145,3.503
	c-3.351,5.179-1.98,12.032,2.894,15.688c69.909,47.825,161.903,47.673,231.812-0.152l0,0c5.178-3.808,6.244-11.118,2.437-16.297
	C417.794,442.759,410.94,441.54,405.762,444.891L405.762,444.891z"/>
<path fill="#00ADEE" d="M232.436,405.443c-5.179-3.96-12.489-2.895-16.297,2.284c-3.96,5.179-2.894,12.489,2.284,16.297l0,0
	c49.957,37.925,119.104,38.077,169.366,0.457c5.179-3.808,6.397-10.966,2.742-16.297c-3.809-5.179-10.967-6.396-16.298-2.741
	c-0.152,0.152-0.304,0.152-0.456,0.305C331.893,437.275,274.167,437.123,232.436,405.443L232.436,405.443L232.436,405.443z"/>
<path fill="#00ADEE" d="M302.649,403.158c20.714,0,40.971-7.158,57.115-20.104c5.026-3.96,5.788-11.423,1.827-16.297
	c-3.96-4.874-11.423-5.788-16.297-1.828c-24.521,19.648-59.552,19.952-84.378,0.609l0,0c-5.331-3.503-12.642-2.132-16.145,3.198
	c-3.199,4.722-2.437,11.119,1.828,15.079C262.44,396.305,282.24,403.158,302.649,403.158L302.649,403.158L302.649,403.158z"/>
<path d="M102.669,313.145c-0.152,2.285,0.914,4.417,2.589,5.788c1.828,1.219,3.96,1.98,6.092,1.828c3.808,0,7.92-1.218,7.92-5.635
	c0-10.052-38.534-1.98-38.534-26.501c0-16.145,16.754-20.714,29.853-20.714c13.708,0,29.852,3.198,31.223,19.8h-22.694
	c-0.152-1.828-1.066-3.503-2.437-4.569c-1.523-1.066-3.199-1.675-5.026-1.523c-4.265,0-7.158,1.371-7.158,4.417
	c0,8.834,39.752,2.894,39.752,26.501c0,13.099-10.813,21.933-33.812,21.933c-14.469,0-30.309-4.417-31.528-21.323H102.669
	L102.669,313.145z"/>
<path d="M148.514,268.062h20.257v9.748h-20.257V268.062z M148.514,333.097v-51.023h20.257v51.175L148.514,333.097L148.514,333.097z"
	/>
<path d="M174.254,281.921h18.429v10.357h0.152c2.894-7.92,7.768-11.88,15.688-11.88c0.914,0,1.828,0.152,2.589,0.305v20.257
	c-1.371-0.305-2.742-0.457-4.265-0.609c-8.225,0-12.489,3.96-12.489,14.926v17.668h-20.257v-51.023H174.254z"/>
<path d="M215.529,268.062h20.257v9.748h-20.257V268.062z M215.529,333.097v-51.023h20.257v51.175L215.529,333.097L215.529,333.097z"
	/>
<path d="M296.405,333.097h-18.886v-7.463c-5.026,7.006-10.052,8.986-18.429,8.986c-11.119,0-18.277-6.854-18.277-21.476v-31.071
	h20.257v27.568c0,7.006,2.437,9.291,7.311,9.291c5.788,0,7.768-4.417,7.768-12.337v-24.674h20.257V333.097L296.405,333.097z"/>
<path d="M317.88,317.257c0,1.828,0.762,3.503,2.133,4.722c1.37,1.066,3.198,1.523,5.025,1.523c3.199,0,6.397-0.914,6.397-4.569
	c0-8.225-31.375-1.675-31.375-21.475c0-13.099,13.555-16.906,24.217-16.906c11.118,0,24.217,2.589,25.435,16.145h-18.429
	c-0.152-1.523-0.762-2.742-1.98-3.655c-1.218-0.914-2.589-1.371-4.112-1.219c-3.503,0-5.787,1.066-5.787,3.656
	c0,7.158,32.289,2.285,32.289,21.475c0,10.662-8.834,17.82-27.567,17.82c-11.729,0-24.522-3.655-25.74-17.363h19.495V317.257z"/>
<path d="M371.492,299.894l-20.714-30.005h27.72l7.92,15.688l8.377-15.688h27.416l-21.628,29.853l21.78,33.051H394.49l-8.833-17.973
	l-9.139,17.973h-27.567L371.492,299.894z"/>
<path d="M424.038,269.889h22.999v9.291c3.046-4.722,8.834-11.119,17.82-11.119c10.356,0,16.753,4.722,19.8,11.575
	c5.33-7.615,10.204-11.575,19.19-11.575c15.84,0,23.607,10.357,23.607,27.568v37.163h-24.979v-32.137
	c0-9.291-0.608-12.946-7.158-12.946c-7.006,0-7.006,6.397-7.006,13.86v31.071h-24.979v-32.137c0-9.291-0.609-12.794-7.158-12.946
	c-6.55-0.152-7.007,6.397-7.007,13.86v31.071H424.19v-62.599H424.038z"/>
</svg>
