<?xml version="1.0" encoding="UTF-8"?>
<svg width="39px" height="34px" viewBox="0 0 39 34" version="1.1" xmlns="http://www.w3.org/2000/svg" xmlns:xlink="http://www.w3.org/1999/xlink">
    <!-- Generator: Sketch 52.5 (67469) - http://www.bohemiancoding.com/sketch -->
    <title>internet_radio</title>
    <desc>Created with Sketch.</desc>
    <defs>
        <path d="M3.825,14.158875 C3.82661497,18.5542202 5.57396387,22.7689541 8.68275,25.876125 L6.87225,27.686625 C-0.593804571,20.2183153 -0.593804571,8.11218466 6.87225,0.643875 L8.68275,2.441625 C5.57396387,5.54879586 3.82661497,9.76352981 3.825,14.158875 Z M33.92775,0.631125 L32.11725,2.441625 C35.2277031,5.55031083 36.9752862,9.76765449 36.9752862,14.16525 C36.9752862,18.5628455 35.2277031,22.7801892 32.11725,25.888875 L33.92775,27.686625 C41.3938046,20.2183153 41.3938046,8.11218466 33.92775,0.643875 L33.92775,0.631125 Z M11.38575,5.144625 C6.41687172,10.1220347 6.41687172,18.1829653 11.38575,23.160375 L13.1835,21.362625 C9.20330342,17.3798187 9.20330342,10.9251813 13.1835,6.942375 L11.38575,5.144625 Z M29.4015,5.144625 L27.60375,6.942375 C31.5839466,10.9251813 31.5839466,17.3798187 27.60375,21.362625 L29.4015,23.160375 C34.3703783,18.1829653 34.3703783,10.1220347 29.4015,5.144625 Z M26.775,14.158875 C26.7756184,17.1887124 24.6436224,19.8004076 21.675,20.406375 L21.675,33.283875 L19.125,33.283875 L19.125,20.406375 C15.8380921,19.7354377 13.6335436,16.6319392 14.0822947,13.3074026 C14.5310457,9.98286607 17.4795357,7.57493259 20.8266991,7.79947237 C24.1738624,8.02401214 26.7743153,10.8041887 26.775,14.158875 Z M24.225,14.158875 C24.225,12.0463858 22.5124892,10.333875 20.4,10.333875 C18.2875108,10.333875 16.575,12.0463858 16.575,14.158875 C16.575,16.2713642 18.2875108,17.983875 20.4,17.983875 C22.5124892,17.983875 24.225,16.2713642 24.225,14.158875 Z" id="path-1"></path>
    </defs>
    <g id="Page-1" stroke="none" stroke-width="1" fill="none" fill-rule="evenodd">
        <g id="icon-/-i-/-Internet-Radio" transform="translate(-6.000000, -9.000000)">
            <g id="Internet-Radio" transform="translate(5.100000, 8.925000)">
                <mask id="mask-2" fill="white">
                    <use xlink:href="#path-1"></use>
                </mask>
                <use id="Mask" fill="#FFFFFF" fill-rule="nonzero" xlink:href="#path-1"></use>
            </g>
        </g>
    </g>
</svg>