<?xml version="1.0" encoding="utf-8"?>
<!-- Generator: Adobe Illustrator 21.0.0, SVG Export Plug-In . SVG Version: 6.00 Build 0)  -->
<svg version="1.1" id="Layer_1" xmlns="http://www.w3.org/2000/svg" xmlns:xlink="http://www.w3.org/1999/xlink" x="0px" y="0px"
	 viewBox="0 0 80 56" style="enable-background:new 0 0 80 56;" xml:space="preserve">
<style type="text/css">
	.st0{fill:#FFFFFF;}
</style>
<title>Artboard Copy 9</title>
<desc>Created with Sketch.</desc>
<g id="Page-1">
	<g id="Artboard-Copy-9">
		<path id="TI_Badge_Black-Copy-2" class="st0" d="M63.9,27.7c0-0.3-0.2-0.5-0.5-0.5h-2.1c-0.1,0-0.2-0.1-0.2-0.2V16.8
			c0-0.1,0.1-0.2,0.2-0.2h1.8c0.3,0,0.5-0.2,0.5-0.5v-2.3c0-0.3-0.2-0.5-0.5-0.5h-7.6c-0.3,0-0.5,0.2-0.5,0.5v2.3
			c0,0.3,0.2,0.5,0.5,0.5h1.8c0.1,0,0.2,0.1,0.2,0.2v10.1c0,0.1-0.1,0.2-0.2,0.2h-2.1c-0.3,0-0.5,0.2-0.5,0.5V30
			c0,0.3,0.2,0.5,0.5,0.5h8.1c0.3,0,0.5-0.2,0.5-0.5L63.9,27.7L63.9,27.7z M38.2,17H4c-0.2,0-0.3,0.1-0.3,0.3v33.8
			c0,0.2,0.1,0.3,0.3,0.3h33.8c0.2,0,0.3-0.1,0.3-0.3V17H38.2z M80,2.8V41c0,1-0.8,1.8-1.8,1.8H41.8v10.5c0,1-0.8,1.8-1.8,1.8H1.8
			c-1,0-1.8-0.8-1.8-1.8V15.1c0-1,0.8-1.8,1.8-1.8h36.3V2.8C38.2,1.8,39,1,40,1h38.2C79.2,1,80,1.8,80,2.8z M14.8,28.5V26
			c0-0.3,0.2-0.5,0.5-0.5h10.1c0.3,0,0.5,0.2,0.5,0.5v2.5c0,0.3-0.2,0.5-0.5,0.5h-3.1c-0.1,0-0.2,0.1-0.2,0.2v13
			c0,0.3-0.2,0.5-0.5,0.5h-2.5c-0.3,0-0.5-0.2-0.5-0.5v-13c0-0.1-0.1-0.2-0.2-0.2h-3.1C15,29,14.8,28.8,14.8,28.5L14.8,28.5z"/>
	</g>
</g>
</svg>
